<?xml version="1.0" encoding="UTF-8" standalone="no"?>
<svg
   viewBox="0 0 24 24"
   fill="none"
   version="1.1"
   id="svg3"
   sodipodi:docname="icon-volume.svg"
   inkscape:version="1.4.2 (f4327f4, 2025-05-13)"
   xmlns:inkscape="http://www.inkscape.org/namespaces/inkscape"
   xmlns:sodipodi="http://sodipodi.sourceforge.net/DTD/sodipodi-0.dtd"
   xmlns="http://www.w3.org/2000/svg"
   xmlns:svg="http://www.w3.org/2000/svg">
  <defs
     id="defs3" />
  <sodipodi:namedview
     id="namedview3"
     pagecolor="#ffffff"
     bordercolor="#000000"
     borderopacity="0.25"
     inkscape:showpageshadow="2"
     inkscape:pageopacity="0.0"
     inkscape:pagecheckerboard="0"
     inkscape:deskcolor="#d1d1d1"
     inkscape:zoom="26.125"
     inkscape:cx="11.980861"
     inkscape:cy="12"
     inkscape:window-width="1600"
     inkscape:window-height="829"
     inkscape:window-x="-8"
     inkscape:window-y="-8"
     inkscape:window-maximized="1"
     inkscape:current-layer="svg3" />
  <path
     d="M 2.8588517,8.7137162 H 7.0813396 L 12.992823,1.6435406 V 22.854067 L 7.0813396,15.783891 H 2.8588517 A 2.5334929,3.5350877 0 0 1 0.3253589,12.248805 c 0,-1.885381 1.1822965,-3.5350888 2.5334928,-3.5350888 z"
     fill="#e5e7eb"
     id="path1"
     style="stroke-width:1.99513" />
  <path
     d="m 14.32569,8.6405231 c 1.158812,0.8757323 1.883069,2.1893299 1.883069,4.0867499 0,1.751464 -0.724257,3.065061 -1.883069,4.086749"
     stroke="#e5e7eb"
     stroke-width="1.6108"
     stroke-linecap="round"
     id="path2" />
  <path
     d="m 15.407031,5.0477016 c 2.252797,1.6640407 3.942397,4.1601015 3.942397,7.4881834 0,3.328082 -1.6896,5.824143 -3.942397,7.488184"
     stroke="#e5e7eb"
     stroke-width="1.93596"
     stroke-linecap="round"
     stroke-opacity="0.75"
     id="path3" />
  <path
     d="m 17.827051,2.7217885 c 2.46854,1.5294889 4.874972,5.1251572 4.836694,9.5621255 -0.03695,4.2837 -1.947101,8.568523 -4.836694,10.480787"
     stroke="#e5e7eb"
     stroke-width="2.11343"
     stroke-linecap="round"
     stroke-opacity="0.75"
     id="path3-9"
     sodipodi:nodetypes="csc" />
</svg>
